# Blender v2.79 (sub 0) OBJ File: ''
# www.blender.org
v 20.460779 -2.763452 -20.460779
v 20.460779 6.138976 -20.460779
v 20.460779 -2.763452 20.460779
v 20.460779 6.138976 20.460779
v -20.460779 -2.763452 -20.460779
v -20.460779 6.138976 -20.460779
v -20.460779 -2.763452 20.460779
v -20.460779 6.138976 20.460779
v 22.449545 8.124540 -22.449545
v 22.449545 8.124540 22.449545
v -22.449545 8.124540 -22.449545
v -22.449545 8.124540 22.449545
v 27.206287 9.456774 -27.206287
v 27.206287 9.456774 27.206287
v -27.206287 9.456774 -27.206287
v -27.206287 9.456774 27.206287
vt 0.795000 0.460157
vt 0.205000 0.588511
vt 0.205000 0.460157
vt 0.795000 0.460157
vt 0.205000 0.588511
vt 0.205000 0.460157
vt 0.205000 0.460157
vt 0.795000 0.588511
vt 0.795000 0.588511
vt 0.795000 0.460157
vt 0.205000 0.205000
vt 0.795000 0.795000
vt 0.205000 0.795000
vt 0.205000 0.205000
vt 0.823674 0.176326
vt 0.795000 0.205000
vt 0.795000 0.795000
vt 0.176326 0.823674
vt 0.205000 0.795000
vt 0.823674 0.823674
vt 0.176326 0.176326
vt 0.892255 0.892255
vt 0.107745 0.107745
vt 0.892255 0.107745
vt 0.107745 0.892255
vt 0.795000 0.588511
vt 0.205000 0.588511
vt 0.795000 0.205000
vn -1.0000 0.0000 0.0000
vn 0.0000 0.0000 -1.0000
vn 1.0000 0.0000 0.0000
vn 0.0000 0.0000 1.0000
vn 0.0000 1.0000 0.0000
vn 0.0000 0.7077 0.7065
vn 0.0000 0.7077 -0.7065
vn 0.7065 0.7077 0.0000
vn -0.7065 0.7077 0.0000
vn 0.2697 0.9629 0.0000
vn -0.2697 0.9629 0.0000
vn 0.0000 0.9629 0.2697
vn 0.0000 0.9629 -0.2697
s off
f 3/1/1 2/2/1 1/3/1
f 7/4/2 4/5/2 3/6/2
f 5/7/3 8/8/3 7/4/3
f 1/3/4 6/9/4 5/10/4
f 1/11/5 7/12/5 3/13/5
f 2/14/6 11/15/6 6/16/6
f 8/17/7 10/18/7 4/19/7
f 6/16/8 12/20/8 8/17/8
f 4/19/9 9/21/9 2/14/9
f 11/15/10 16/22/10 12/20/10
f 10/18/11 13/23/11 9/21/11
f 9/21/12 15/24/12 11/15/12
f 12/20/13 14/25/13 10/18/13
f 3/1/1 4/26/1 2/2/1
f 7/4/2 8/8/2 4/5/2
f 5/7/3 6/27/3 8/8/3
f 1/3/4 2/2/4 6/9/4
f 1/11/5 5/28/5 7/12/5
f 2/14/6 9/21/6 11/15/6
f 8/17/7 12/20/7 10/18/7
f 6/16/8 11/15/8 12/20/8
f 4/19/9 10/18/9 9/21/9
f 11/15/10 15/24/10 16/22/10
f 10/18/11 14/25/11 13/23/11
f 9/21/12 13/23/12 15/24/12
f 12/20/13 16/22/13 14/25/13
